<svg xmlns="http://www.w3.org/2000/svg" width="128" height="30" viewBox="0 0 128 30"><defs><style>.cls-3{fill:#004c9b}</style></defs><g id="header-icon-logo-m"><path id="area" fill="none" d="M0 0h128v30H0z"/><g id="그룹_14"><path id="패스_73" fill="#0070bf" d="M89.237 121.088L94.154 125l59.646-3.8.036-.11z" transform="translate(-89.237 -109.517)"/><g id="그룹_8" transform="translate(4.856)"><path id="패스_74" d="M117.06 94.015a3.657 3.657 0 00-2.154-1.662 11.74 11.74 0 00-3.638-.461h-7.229l-2.527 10.042h7.243a16.894 16.894 0 002.773-.217 9.331 9.331 0 001.979-.548 6.922 6.922 0 001.547-.913 6.67 6.67 0 001.368-1.456 5.53 5.53 0 00.678-1.313 6.417 6.417 0 00.209-.674 3.814 3.814 0 00-.25-2.8m-4.845 2.729l-.006.024a3.68 3.68 0 01-.258.719 2.672 2.672 0 01-.359.557 2.226 2.226 0 01-.977.688 6.278 6.278 0 01-1.872.224H107.4l1.053-4.253h1.473a5.836 5.836 0 011.634.156.947.947 0 01.484.325 1.261 1.261 0 01.237.653 2.635 2.635 0 01-.066.909z" class="cls-3" transform="translate(-101.512 -91.87)"/><path id="패스_75" d="M192.628 98.606a3.144 3.144 0 00-.115-1.367c-.436-1.15-1.554-1.718-3.734-1.718h-3.5c-.478 0-.948-.036-1.095-.464-.072-.208.066-.443.544-.443h8.16l.7-2.734h-9.208a7.049 7.049 0 00-3.683.664 2.991 2.991 0 00-1.545 2.409 2.671 2.671 0 001.04 2.436 6.254 6.254 0 003.612.881h3.369c.478 0 .645.276.545.473-.169.344-.545.441-1.023.441h-8.059l-.7 2.746h9.379a7.878 7.878 0 003.679-.959 3.481 3.481 0 001.6-2.167z" class="cls-3" transform="translate(-147.704 -91.862)"/><path id="패스_76" d="M216.911 99.9a3.5 3.5 0 001.911 1.655 11.393 11.393 0 003.9.381h6.394l.694-2.8h-5.61a5.851 5.851 0 01-1.636-.155.956.956 0 01-.489-.323 1.326 1.326 0 01-.236-.67 2.329 2.329 0 01.138-.924.134.134 0 00.007-.023 2.75 2.75 0 01.379-.717 2.88 2.88 0 01.523-.554 4.042 4.042 0 011.472-.686 13.858 13.858 0 012.4-.224h4.278l.764-2.962h-5.529a27.156 27.156 0 00-3.438.189 13.442 13.442 0 00-2.137.514 7.511 7.511 0 00-1.769.968 6.663 6.663 0 00-1.369 1.451 5.648 5.648 0 00-.679 1.325 6.646 6.646 0 00-.212.672 4.033 4.033 0 00.244 2.883z" class="cls-3" transform="translate(-171.022 -91.871)"/><path id="패스_77" d="M139.522 101.9l2.529-10.062h5.1l-.872 3.482h3.833l.868-3.471h5.1l-2.518 10.063h-5.109l.844-3.352h-3.825l-.835 3.339z" class="cls-3" transform="translate(-124.486 -91.835)"/></g><g id="그룹_13" transform="translate(38.966 16.776)"><path id="패스_78" d="M200.225 135.177l-.774 4.371h-1.03l.773-4.371H196.1l-1.634 9.231H191l1.271-7.187h2.549l.3-1.728h-5.748l-.019.11-1.59 8.984a1.262 1.262 0 001.269 1.547h5.13l-.224 1.265h3.09l1.084-6.123h1.03l-1.083 6.123h3.09l2.162-12.222z" class="cls-3" transform="translate(-187.743 -134.808)"/><g id="그룹_9" transform="translate(31.127 .726)"><path id="패스_79" d="M276.228 153.564h-3.4l-.5 2.822h-5.594l-.3 1.729H281l.306-1.729h-5.575z" class="cls-3" transform="translate(-266.432 -146.648)"/><path id="패스_80" d="M284.3 136.08h-12.9l-.306 1.729h4.406a7.035 7.035 0 01-5.545 3.682l.7 1.619a12.832 12.832 0 006.386-2.155c1.076 1.111 2.929 1.878 5.57 2.155l1.27-1.619c-2.413-.324-4.182-1.548-4.4-3.682H284z" class="cls-3" transform="translate(-268.562 -136.08)"/></g><g id="그룹_10" transform="translate(46.754 .424)"><path id="패스_81" d="M332.684 137.586h-2.394l-.3 1.731h2.393l-.81 4.618h3.276l1.519-8.62h-3.276z" class="cls-3" transform="translate(-320.472 -135.315)"/><path id="패스_82" d="M313.263 155.106h-3.2l-.476 2.655a1.261 1.261 0 001.269 1.545H322l.306-1.725h-9.482z" class="cls-3" transform="translate(-308.128 -147.277)"/><path id="패스_83" d="M311.865 140.014a6.7 6.7 0 004.061 2.591l1.319-1.569c-2.9-.922-3.34-2.889-2.907-5.69h-3.361a6.788 6.788 0 01-5.043 5.69l.856 1.661a10.545 10.545 0 005.075-2.683z" class="cls-3" transform="translate(-305.935 -135.334)"/></g><g id="그룹_11" transform="translate(16.261)"><path id="패스_84" d="M232.618 156.545h-3.2l-.418 2.223a1.262 1.262 0 001.269 1.547h11.139l.306-1.725h-9.483z" class="cls-3" transform="translate(-228.928 -147.723)"/><path id="패스_85" d="M238.986 135.343h-3.014l.2-1.1H233.1l-.2 1.1h-3.073l-.315 1.727h1.837a3.588 3.588 0 00-2.449 2.622c-.4 2.046 1.395 3.087 4 3.087s4.964-1.041 5.361-3.087a2.248 2.248 0 00-1.54-2.622h1.95zm-3.658 4.317a2.02 2.02 0 01-2.064 1.49c-.82 0-1.609-.523-1.457-1.415a1.971 1.971 0 012.064-1.547 1.338 1.338 0 011.457 1.472z" class="cls-3" transform="translate(-228.85 -134.244)"/><path id="패스_86" d="M257.441 139.358h1.486l.306-1.729h-1.486l.418-2.476h-3.276l-1.519 8.62h3.277z" class="cls-3" transform="translate(-243.671 -134.793)"/></g><g id="그룹_12" transform="translate(63.695 .01)"><path id="패스_87" d="M360.1 155.3h5.37l-.559 3.16h3.5l.559-3.16h5.353l.3-1.688H360.4z" class="cls-3" transform="translate(-355.614 -145.959)"/><path id="패스_88" d="M376.544 136.511h-12.6l-.3 1.687h4.156c-1.139 1.795-2.823 2.381-5.115 2.772l.681 1.578a14.779 14.779 0 006.128-1.651c1.1.866 2.963 1.381 5.543 1.651l1.241-1.578c-2.344-.317-4.213-.864-4.481-2.772h4.448z" class="cls-3" transform="translate(-357.177 -135.624)"/><path id="패스_89" d="M349.956 147.169A21.664 21.664 0 01349 144.5a7.724 7.724 0 010-3.788 9.921 9.921 0 011.613-3.781q1.151-1.6 2.091-2.662h1.87a18.931 18.931 0 00-2.238 3.418 13.217 13.217 0 00-1.08 3.025 11.12 11.12 0 00-.206 3.027 12.277 12.277 0 00.781 3.431z" class="cls-3" transform="translate(-348.763 -134.269)"/><path id="패스_90" d="M401.3 140.712a9.83 9.83 0 01-1.622 3.788q-1.154 1.59-2.1 2.669h-1.884a19.176 19.176 0 002.262-3.431 12.975 12.975 0 001.087-3.027 10.934 10.934 0 00.2-3.025 11.916 11.916 0 00-.806-3.418h1.885a20.8 20.8 0 01.967 2.662 7.668 7.668 0 01.011 3.782z" class="cls-3" transform="translate(-377.129 -134.269)"/></g></g></g></g></svg>